<?xml version="1.0" standalone="no"?>
<!DOCTYPE svg PUBLIC "-//W3C//DTD SVG 20010904//EN"
 "http://www.w3.org/TR/2001/REC-SVG-20010904/DTD/svg10.dtd">
<svg version="1.0" xmlns="http://www.w3.org/2000/svg"
 width="100.000000pt" height="100.000000pt" viewBox="0 0 100.000000 100.000000"
 preserveAspectRatio="xMidYMid meet">
<metadata>
Created by potrace 1.11, written by Peter Selinger 2001-2013
</metadata>
<g transform="translate(0.000000,100.000000) scale(0.100000,-0.100000)"
fill="#000000" stroke="none">
<path d="M324 877 c-94 -34 -178 -68 -186 -74 -11 -10 -14 -46 -13 -185 1
-178 9 -226 46 -280 11 -14 19 -30 19 -36 0 -34 235 -219 298 -235 39 -9 193
91 277 181 20 20 52 70 72 110 l37 74 1 179 c1 151 -1 182 -14 192 -12 10
-300 118 -356 133 -5 2 -87 -25 -181 -59z m240 -28 c34 -11 103 -37 154 -56
l94 -36 -4 -166 c-3 -160 -4 -168 -31 -216 -44 -80 -130 -162 -229 -219 -54
-30 -52 -31 -148 34 -79 53 -146 126 -180 194 -29 58 -30 62 -30 217 l0 157
68 26 c139 53 227 85 236 86 5 0 37 -9 70 -21z"/>
<path d="M530 780 c0 -5 9 -10 20 -10 10 0 29 -10 40 -22 30 -33 17 -72 -47
-137 -29 -31 -51 -49 -48 -40 3 9 -1 22 -10 29 -13 11 -18 10 -30 -6 -19 -25
-14 -37 16 -45 13 -4 17 -7 9 -8 -8 -1 -40 -23 -70 -50 -158 -142 -146 -127
-130 -155 26 -49 49 -44 110 21 99 107 121 137 117 155 -3 10 -1 16 3 13 4 -3
34 21 67 54 36 36 65 57 76 55 32 -5 48 -14 43 -23 -3 -5 0 -14 7 -20 11 -8
19 -5 36 13 21 22 21 54 1 41 -5 -3 -16 10 -26 30 -18 38 -74 88 -118 105 -35
13 -66 13 -66 0z"/>
<path d="M354 759 c-18 -20 -18 -21 6 -40 14 -10 28 -19 33 -19 15 0 6 -40
-12 -50 -27 -14 -26 -14 -50 26 l-22 37 -24 -23 -25 -23 26 -46 c15 -25 30
-49 33 -53 10 -11 102 20 122 41 16 17 39 80 39 108 0 10 -87 63 -103 63 -2 0
-12 -9 -23 -21z"/>
<path d="M537 527 c-9 -7 -17 -19 -19 -28 -4 -20 141 -179 163 -179 15 0 49
30 49 43 0 7 -14 22 -122 124 -46 43 -58 50 -71 40z m159 -158 c7 -12 -15 -31
-28 -23 -4 3 -8 12 -8 20 0 17 26 19 36 3z"/>
</g>
</svg>
