<svg xmlns="http://www.w3.org/2000/svg" width="600" height="600"><g fill="#037"><path d="M205.745 42.011c-49.214.038-89.096 27.464-89.07 61.298.022 28.534 28.33 52.656 66.83 58.938 8.028 1.31 12.562 1.24 17.335 1.475 1.004.05 1.85 1.088 1.807 1.992-.043.904-.987 1.894-1.991 1.844-7.142-.355-8.032-.31-13.352-.811v18.035l-9.036.037c-3.504.014-6.543 2.808-6.344 6.307l7.45 130.93c.2 3.5 2.85 6.059 6.344 6.308 61.632 4.39 124.027 4.652 187.214-.148 3.494-.265 6.113-2.808 6.307-6.307l7.228-130.931c.194-3.499-2.803-6.307-6.306-6.307h-7.23l-.036-23.272c-2.152.248-4.726.37-8.299.368-1.034 0-2-1.03-1.991-1.954.01-.926.994-1.902 2.028-1.881 3.942.078 6.552.056 8.63-.443 28.04-6.73 47.926-24.522 47.91-45.144-.02-26.657-33.305-48.236-74.317-48.205-21.506.017-40.881 5.985-54.438 15.491 2.585 3.498 4.78 6.164 7.23 7.966 2.495 1.837 5.286 2.883 9.625 3.099 1.004.05 1.851 1.087 1.808 1.991-.044.904-.988 1.894-1.992 1.844-4.912-.244-8.794-1.39-11.729-3.835-3.579-2.982-5.364-4.172-8.52-9.627-13.159-22.75-45.234-39.086-83.095-39.058zm34.08 173.383l13.166.148A5.387 5.387 0 0 1 258.34 221l-.774 81.325c-.03 3-2.496 5.421-5.496 5.385l-13.13-.148a5.387 5.387 0 0 1-5.348-5.458l.775-81.325c.029-3 2.458-5.421 5.458-5.385zm69.3.7c16.682.166 30.013 20.565 29.765 45.587-.249 25.022-13.931 45.162-30.613 44.996-16.68-.166-30.012-20.564-29.763-45.586.248-25.022 13.93-45.162 30.612-44.996zM51.758 304.3c-4.193-1.712-16.1-.964-19.041 6.216l-12.233 29.865c-3.054 7.457 5.013 16.09 9.231 17.818L158.85 411.07c1.414-1.41 3.346-2.334 5.5-2.387 4.461-.109 8.212 3.533 8.322 7.994.544.24 1.117.497 1.58.685 4.218 1.726 9.005-.318 10.731-4.536l5.21-12.734 248.62 101.796c.907 3.92 11.43 10.976 18.963 14.428 4.75 2.177 9.68 3.94 14.512 5.931a3937.32 3937.32 0 0 1 10.044-24.54c-4.848-1.952-9.567-4.245-14.513-5.932-6.294-2.147-18.546-5.035-23.684-3.006l-248.53-101.803 5.21-12.733c1.726-4.219-.298-9.056-4.522-10.77l-1.556-.631a8.111 8.111 0 0 1-5.986 2.837c-4.46.11-8.34-3.84-8.246-8.696-44.5-18.436-88.505-36.245-128.746-52.674zm1.058 15.363c41.832 16.856 81.328 33.193 123.083 50.237 1.21.533 1.789 2.221 1.332 3.323-.458 1.103-2.07 1.905-3.294 1.405L51.373 324.602l-.037-.015c-5.155-2.092-9.346-.926-11.73 2.103-.9 1.145-2.814 1.447-3.806.629-.992-.818-1.07-2.764-.107-3.857 3.04-3.449 6.82-4.784 10.08-4.844 2.498-.046 5.069.25 7.043 1.045zm-9.964 23.493c41.732 17.046 81.288 33.3 123.022 50.386 1.246.51 1.904 2.222 1.447 3.349-.457 1.127-2.126 1.904-3.371 1.394L41.15 347.99c-1.406-.575-1.994-2.233-1.552-3.396.422-1.108 1.82-2.023 3.254-1.438z"/><path d="M371.602 349.476l-10.877 4.767a4.373 4.373 0 0 0-2.276 5.775l2.94 6.765-11.779 16.942c-52.286 24.387-109.411 51.39-164.054 77.13-4.123 1.941-6.05 6.667-4.216 10.84l3.473 7.9c-4.682 2.236-9.351 4.476-14.015 6.614-1.561-6.472-5.84-11.709-11.276-14.563-6.503-3.416-14.005-3.688-22.003-1.216a39.292 39.292 0 0 0-6.196 2.492c-2.07 1.054-4.08 2.354-5.893 3.929-3.624 3.15-6.508 7.932-5.796 13.497.608 4.753 2.723 9.47 6.964 12.416 4.241 2.945 10.186 3.703 17.28 1.82 6-1.592 11.805-3.583 17.491-5.832-.323.523-.46 1.06-.844 1.573-2.575 3.434-6.528 6.473-10.732 8.525-17.179 8.382-35.295 17.302-53.425 24.384l2.821 7.139c18.55-7.246 36.807-16.247 53.966-24.62 5.152-2.513 10.02-6.16 13.515-10.82 2.288-3.05 3.893-6.633 4.528-10.493 5.631-2.517 11.169-5.14 16.688-7.775l2.327 5.262c1.843 4.168 6.583 6.039 10.787 4.28 55.313-23.145 114.343-47.955 168.087-67.943l20.394 2.88 2.974 6.75c.983 2.233 3.54 3.255 5.774 2.276l10.877-4.768c2.235-.979 3.286-3.552 2.31-5.789l-10.78-24.712 137.587-60.117a5.298 5.298 0 0 0 2.754-6.987l-2.249-5.176 34.304-14.989c2.32-1.013 8.053-5.725 7.04-8.045-1.01-2.323-8.385-1.309-10.705-.295l-34.304 14.989-2.249-5.175c-1.174-2.703-4.321-3.919-7.022-2.74l-137.567 60.068-10.814-24.697a4.4 4.4 0 0 0-5.809-2.261zM137.324 478.679a30.232 30.232 0 0 1 2.494-.923c6.38-1.973 11.488-1.855 16.247.74 3.872 2.112 6.9 5.673 7.663 10.786-7.176 3.07-14.388 5.904-21.83 7.879-5.658 1.5-8.913.743-10.949-.671-2.036-1.414-3.283-3.883-3.697-7.12-.333-2.604.756-4.621 3.186-6.733 1.215-1.056 2.772-2.007 4.398-2.836.812-.415 1.654-.78 2.488-1.122z"/><g><path d="M205.745 42.011c-49.214.038-89.096 27.464-89.07 61.298.022 28.534 28.33 52.656 66.83 58.938 8.028 1.31 12.562 1.24 17.335 1.475 1.004.05 1.85 1.088 1.807 1.992-.043.904-.987 1.894-1.991 1.844-7.142-.355-8.032-.31-13.352-.811v18.035l-9.036.037c-3.504.014-6.543 2.808-6.344 6.307l7.45 130.93c.2 3.5 2.85 6.059 6.344 6.308 61.632 4.39 124.027 4.652 187.214-.148 3.494-.265 6.113-2.808 6.307-6.307l7.228-130.931c.194-3.499-2.803-6.307-6.306-6.307h-7.23l-.036-23.272c-2.152.248-4.726.37-8.299.368-1.034 0-2-1.03-1.991-1.954.01-.926.994-1.902 2.028-1.881 3.942.078 6.552.056 8.63-.443 28.04-6.73 47.926-24.522 47.91-45.144-.02-26.657-33.305-48.236-74.317-48.205-21.506.017-40.881 5.985-54.438 15.491 2.585 3.498 4.78 6.164 7.23 7.966 2.495 1.837 5.286 2.883 9.625 3.099 1.004.05 1.851 1.087 1.808 1.991-.044.904-.988 1.894-1.992 1.844-4.912-.244-8.794-1.39-11.729-3.835-3.579-2.982-5.364-4.172-8.52-9.627-13.159-22.75-45.234-39.086-83.095-39.058zm34.08 173.383l13.166.148A5.387 5.387 0 0 1 258.34 221l-.774 81.325c-.03 3-2.496 5.421-5.496 5.385l-13.13-.148a5.387 5.387 0 0 1-5.348-5.458l.775-81.325c.029-3 2.458-5.421 5.458-5.385zm69.3.7c16.682.166 30.013 20.565 29.765 45.587-.249 25.022-13.931 45.162-30.613 44.996-16.68-.166-30.012-20.564-29.763-45.586.248-25.022 13.93-45.162 30.612-44.996zM51.758 304.3c-4.193-1.712-16.1-.964-19.041 6.216l-12.233 29.865c-3.054 7.457 5.013 16.09 9.231 17.818L158.85 411.07c1.414-1.41 3.346-2.334 5.5-2.387 4.461-.109 8.212 3.533 8.322 7.994.544.24 1.117.497 1.58.685 4.218 1.726 9.005-.318 10.731-4.536l5.21-12.734 248.62 101.796c.907 3.92 11.43 10.976 18.963 14.428 4.75 2.177 9.68 3.94 14.512 5.931a3937.32 3937.32 0 0 1 10.044-24.54c-4.848-1.952-9.567-4.245-14.513-5.932-6.294-2.147-18.546-5.035-23.684-3.006l-248.53-101.803 5.21-12.733c1.726-4.219-.298-9.056-4.522-10.77l-1.556-.631a8.111 8.111 0 0 1-5.986 2.837c-4.46.11-8.34-3.84-8.246-8.696-44.5-18.436-88.505-36.245-128.746-52.674zm1.058 15.363c41.832 16.856 81.328 33.193 123.083 50.237 1.21.533 1.789 2.221 1.332 3.323-.458 1.103-2.07 1.905-3.294 1.405L51.373 324.602l-.037-.015c-5.155-2.092-9.346-.926-11.73 2.103-.9 1.145-2.814 1.447-3.806.629-.992-.818-1.07-2.764-.107-3.857 3.04-3.449 6.82-4.784 10.08-4.844 2.498-.046 5.069.25 7.043 1.045zm-9.964 23.493c41.732 17.046 81.288 33.3 123.022 50.386 1.246.51 1.904 2.222 1.447 3.349-.457 1.127-2.126 1.904-3.371 1.394L41.15 347.99c-1.406-.575-1.994-2.233-1.552-3.396.422-1.108 1.82-2.023 3.254-1.438z"/><path d="M371.602 349.476l-10.877 4.767a4.373 4.373 0 0 0-2.276 5.775l2.94 6.765-11.779 16.942c-52.286 24.387-109.411 51.39-164.054 77.13-4.123 1.941-6.05 6.667-4.216 10.84l3.473 7.9c-4.682 2.236-9.351 4.476-14.015 6.614-1.561-6.472-5.84-11.709-11.276-14.563-6.503-3.416-14.005-3.688-22.003-1.216a39.292 39.292 0 0 0-6.196 2.492c-2.07 1.054-4.08 2.354-5.893 3.929-3.624 3.15-6.508 7.932-5.796 13.497.608 4.753 2.723 9.47 6.964 12.416 4.241 2.945 10.186 3.703 17.28 1.82 6-1.592 11.805-3.583 17.491-5.832-.323.523-.46 1.06-.844 1.573-2.575 3.434-6.528 6.473-10.732 8.525-17.179 8.382-35.295 17.302-53.425 24.384l2.821 7.139c18.55-7.246 36.807-16.247 53.966-24.62 5.152-2.513 10.02-6.16 13.515-10.82 2.288-3.05 3.893-6.633 4.528-10.493 5.631-2.517 11.169-5.14 16.688-7.775l2.327 5.262c1.843 4.168 6.583 6.039 10.787 4.28 55.313-23.145 114.343-47.955 168.087-67.943l20.394 2.88 2.974 6.75c.983 2.233 3.54 3.255 5.774 2.276l10.877-4.768c2.235-.979 3.286-3.552 2.31-5.789l-10.78-24.712 137.587-60.117a5.298 5.298 0 0 0 2.754-6.987l-2.249-5.176 34.304-14.989c2.32-1.013 8.053-5.725 7.04-8.045-1.01-2.323-8.385-1.309-10.705-.295l-34.304 14.989-2.249-5.175c-1.174-2.703-4.321-3.919-7.022-2.74l-137.567 60.068-10.814-24.697a4.4 4.4 0 0 0-5.809-2.261zM137.324 478.679a30.232 30.232 0 0 1 2.494-.923c6.38-1.973 11.488-1.855 16.247.74 3.872 2.112 6.9 5.673 7.663 10.786-7.176 3.07-14.388 5.904-21.83 7.879-5.658 1.5-8.913.743-10.949-.671-2.036-1.414-3.283-3.883-3.697-7.12-.333-2.604.756-4.621 3.186-6.733 1.215-1.056 2.772-2.007 4.398-2.836.812-.415 1.654-.78 2.488-1.122z"/></g></g></svg>